<svg xmlns="http://www.w3.org/2000/svg" width="535" height="465" viewBox="0 0 535 465">
  <g id="Add_User-rafiki" data-name="Add User-rafiki" transform="translate(0 -55)">
    <g id="freepik--background-complete--inject-40" transform="translate(0 55)">
      <rect id="Rectangle_17316" data-name="Rectangle 17316" width="535" height="0.267" transform="translate(0 416.679)" fill="#ebebeb"/>
      <rect id="Rectangle_17317" data-name="Rectangle 17317" width="35.438" height="0.267" transform="translate(445.955 433.895)" fill="#ebebeb"/>
      <rect id="Rectangle_17318" data-name="Rectangle 17318" width="9.298" height="0.267" transform="translate(345.107 436.806)" fill="#ebebeb"/>
      <rect id="Rectangle_17319" data-name="Rectangle 17319" width="20.533" height="0.267" transform="translate(424.351 423.966)" fill="#ebebeb"/>
      <rect id="Rectangle_17320" data-name="Rectangle 17320" width="46.213" height="0.267" transform="translate(56.132 425.763)" fill="#ebebeb"/>
      <rect id="Rectangle_17321" data-name="Rectangle 17321" width="6.773" height="0.267" transform="translate(111.879 425.763)" fill="#ebebeb"/>
      <rect id="Rectangle_17322" data-name="Rectangle 17322" width="100.238" height="0.267" transform="translate(140.673 430.278)" fill="#ebebeb"/>
      <path id="Path_1279" data-name="Path 1279" d="M250.915,357.6H44.309a6.11,6.11,0,0,1-6.1-6.11V61.056A6.11,6.11,0,0,1,44.309,55H250.915a6.11,6.11,0,0,1,6.11,6.11V351.486A6.11,6.11,0,0,1,250.915,357.6ZM44.309,55.214a5.842,5.842,0,0,0-5.832,5.842v290.43a5.842,5.842,0,0,0,5.831,5.842H250.915a5.853,5.853,0,0,0,5.842-5.842V61.056a5.853,5.853,0,0,0-5.842-5.842Z" transform="translate(2.675 -55)" fill="#ebebeb"/>
      <path id="Path_1280" data-name="Path 1280" d="M467.227,357.6H260.61a6.12,6.12,0,0,1-6.11-6.11V61.056A6.12,6.12,0,0,1,260.61,55H467.227a6.11,6.11,0,0,1,6.088,6.056v290.43A6.11,6.11,0,0,1,467.227,357.6ZM260.61,55.214a5.853,5.853,0,0,0-5.842,5.842v290.43a5.853,5.853,0,0,0,5.842,5.842H467.227a5.853,5.853,0,0,0,5.842-5.842V61.056a5.853,5.853,0,0,0-5.842-5.842Z" transform="translate(17.815 -55)" fill="#ebebeb"/>
      <rect id="Rectangle_17323" data-name="Rectangle 17323" width="19.923" height="136.821" transform="translate(254.36 416.679) rotate(180)" fill="#e6e6e6"/>
      <path id="Path_1281" data-name="Path 1281" d="M226.119,384.1H219.1v-26h14.37Z" transform="translate(15.337 32.578)" fill="#f0f0f0"/>
      <rect id="Rectangle_17324" data-name="Rectangle 17324" width="19.923" height="136.821" transform="translate(465.075 416.679) rotate(180)" fill="#e6e6e6"/>
      <rect id="Rectangle_17325" data-name="Rectangle 17325" width="216.825" height="129.727" transform="translate(451.272 409.574) rotate(180)" fill="#f0f0f0"/>
      <path id="Path_1282" data-name="Path 1282" d="M415.671,384.1h7.019v-26H408.32Z" transform="translate(28.582 32.578)" fill="#f0f0f0"/>
      <rect id="Rectangle_17326" data-name="Rectangle 17326" width="107.31" height="64.275" transform="translate(379.786 397.9) rotate(-90)" fill="#e6e6e6"/>
      <path id="Path_1283" data-name="Path 1283" d="M379.953,268.446h12.712A21.561,21.561,0,0,0,407.3,263H365.38A21.582,21.582,0,0,0,379.953,268.446Z" transform="translate(25.577 -0.005)" fill="#f0f0f0"/>
      <rect id="Rectangle_17327" data-name="Rectangle 17327" width="107.31" height="64.275" transform="translate(310.717 397.9) rotate(-90)" fill="#e6e6e6"/>
      <path id="Path_1284" data-name="Path 1284" d="M314.825,268.446h12.722A21.582,21.582,0,0,0,342.153,263H300.23A21.55,21.55,0,0,0,314.825,268.446Z" transform="translate(21.016 -0.006)" fill="#f0f0f0"/>
      <rect id="Rectangle_17328" data-name="Rectangle 17328" width="107.31" height="64.275" transform="translate(241.649 397.911) rotate(-90)" fill="#e6e6e6"/>
      <path id="Path_1285" data-name="Path 1285" d="M250.285,268.446H263A21.582,21.582,0,0,0,277.6,263H235.68a21.561,21.561,0,0,0,14.605,5.446Z" transform="translate(16.498 -0.006)" fill="#f0f0f0"/>
      <rect id="Rectangle_17329" data-name="Rectangle 17329" width="135.954" height="371.974" transform="translate(215.776 416.679) rotate(180)" fill="#f0f0f0"/>
      <rect id="Rectangle_17330" data-name="Rectangle 17330" width="133.087" height="371.974" transform="translate(212.909 416.679) rotate(180)" fill="#f5f5f5"/>
      <rect id="Rectangle_17331" data-name="Rectangle 17331" width="358.107" height="116.865" transform="translate(204.798 51.638) rotate(90)" fill="#f0f0f0"/>
      <path id="Path_1286" data-name="Path 1286" d="M186.812,156.085h0a31.854,31.854,0,0,0-31.854-31.865H124.785A31.865,31.865,0,0,0,92.92,156.085Z" transform="translate(6.504 -35.649)" fill="#fafafa"/>
      <rect id="Rectangle_17332" data-name="Rectangle 17332" width="69.7" height="93.892" transform="translate(193.328 321.909) rotate(90)" fill="#f5f5f5"/>
      <rect id="Rectangle_17333" data-name="Rectangle 17333" width="41.42" height="121.006" transform="translate(151.908 158.907)" fill="#f5f5f5"/>
      <rect id="Rectangle_17334" data-name="Rectangle 17334" width="41.42" height="121.006" transform="translate(99.424 158.907)" fill="#f5f5f5"/>
      <path id="Path_1287" data-name="Path 1287" d="M108.285,228.714H91.272a2.632,2.632,0,0,1-2.632-2.632h0a2.643,2.643,0,0,1,2.632-2.632h17.013a2.643,2.643,0,0,1,2.632,2.632h0A2.632,2.632,0,0,1,108.285,228.714Z" transform="translate(6.205 -10.479)" fill="#e0e0e0"/>
      <rect id="Rectangle_17335" data-name="Rectangle 17335" width="358.107" height="2.108" transform="translate(90.041 51.638) rotate(90)" fill="#f0f0f0"/>
      <rect id="Rectangle_17336" data-name="Rectangle 17336" width="144.172" height="150.71" transform="translate(445.955 179.953) rotate(180)" fill="#e6e6e6"/>
      <rect id="Rectangle_17337" data-name="Rectangle 17337" width="144.172" height="150.71" transform="translate(442.317 179.953) rotate(180)" fill="#f5f5f5"/>
      <rect id="Rectangle_17338" data-name="Rectangle 17338" width="156.231" height="7.832" transform="translate(445.955 220.693) rotate(180)" fill="#e6e6e6"/>
      <rect id="Rectangle_17339" data-name="Rectangle 17339" width="148.184" height="7.832" transform="translate(433.81 220.693) rotate(180)" fill="#f5f5f5"/>
      <rect id="Rectangle_17340" data-name="Rectangle 17340" width="136.639" height="131.129" transform="translate(435.8 36.284) rotate(90)" fill="#fff"/>
      <rect id="Rectangle_17341" data-name="Rectangle 17341" width="136.639" height="7.265" transform="translate(373.869 36.284) rotate(90)" fill="#f5f5f5"/>
      <rect id="Rectangle_17342" data-name="Rectangle 17342" width="136.639" height="2.75" transform="translate(307.411 36.284) rotate(90)" fill="#e6e6e6"/>
      <rect id="Rectangle_17343" data-name="Rectangle 17343" width="136.639" height="2.75" transform="translate(376.619 36.284) rotate(90)" fill="#e6e6e6"/>
      <path id="Path_1288" data-name="Path 1288" d="M300.384,232.327c-2.654-27.478-4.5-72.054-3.071-86.97a1.851,1.851,0,0,1,.749-1.284h0a1.83,1.83,0,0,1,2.91,1.53c-.246,7.394-.535,25.862,1.07,57.716.781,15.857,1.9,26.75,1.134,29.008Z" transform="translate(20.777 -26.459)" fill="#e6e6e6"/>
      <path id="Path_1289" data-name="Path 1289" d="M293.5,168.287c-7.554-8.389-22.973-14.349-38.68-14.317-6.174,0,18.768,9.748,29.136,20.5,8.057,8.346,17.12,22.4,20.234,30.2C302.16,188.242,301.09,176.665,293.5,168.287Z" transform="translate(17.77 -26.112)" fill="#e6e6e6"/>
      <path id="Path_1290" data-name="Path 1290" d="M305.26,170.8c6.27-8.731,20.737-15.451,36.38-16.21,6.142-.3-17.248,10.7-25.98,21.892-6.773,8.721-13.728,23.176-15.643,31.094C299.578,191.131,298.947,179.532,305.26,170.8Z" transform="translate(20.983 -25.773)" fill="#e6e6e6"/>
      <path id="Path_1291" data-name="Path 1291" d="M292.8,139.533c-6.42-7.1-19.453-12.155-32.763-12.123-5.222,0,15.89,8.26,24.674,17.355,6.827,7.073,14.52,18.971,17.12,25.573C300.148,156.45,299.185,146.627,292.8,139.533Z" transform="translate(18.145 -34.246)" fill="#e6e6e6"/>
      <path id="Path_1292" data-name="Path 1292" d="M302.742,149.448c5.35-7.394,17.559-13.086,30.827-13.728,5.2-.246-14.605,9.031-22,18.543-5.735,7.383-11.631,19.624-13.247,26.333C297.991,166.665,297.435,156.842,302.742,149.448Z" transform="translate(20.869 -31.76)" fill="#e6e6e6"/>
      <path id="Path_1293" data-name="Path 1293" d="M302.25,257.055h0a15.6,15.6,0,0,1-15.579-14.712l-1.38-23.882h33.93l-1.38,23.882a15.6,15.6,0,0,1-15.59,14.713Z" transform="translate(19.97 -8.61)" fill="#e6e6e6"/>
      <path id="Path_1294" data-name="Path 1294" d="M321.629,224.18H283.312l-1.1-9.94h40.51Z" transform="translate(19.755 -12.512)" fill="#e6e6e6"/>
    </g>
    <g id="freepik--Shadow--inject-40" transform="translate(60.038 495.775)">
      <ellipse id="freepik--path--inject-40" cx="207.462" cy="12.112" rx="207.462" ry="12.112" fill="#f5f5f5"/>
    </g>
    <g id="freepik--Window--inject-40" transform="translate(55.961 110.908)">
      <path id="Path_1295" data-name="Path 1295" d="M52.3,113.97a6.741,6.741,0,0,1,6.72-6.72H358.855a6.741,6.741,0,0,1,6.72,6.72v21.625H52.3Z" transform="translate(-52.3 -107.25)" fill="#263238"/>
      <path id="Path_1296" data-name="Path 1296" d="M103.441,126.532a5.671,5.671,0,1,1,5.671-5.671A5.671,5.671,0,0,1,103.441,126.532Zm0-10.154a4.483,4.483,0,1,0,4.483,4.483,4.483,4.483,0,0,0-4.483-4.483Z" transform="translate(-49.117 -106.694)" fill="#f0f0f0"/>
      <path id="Path_1297" data-name="Path 1297" d="M86.61,126.532a5.671,5.671,0,1,1,4.017-1.657A5.671,5.671,0,0,1,86.61,126.532Zm0-10.154a4.483,4.483,0,1,0,4.494,4.483,4.483,4.483,0,0,0-4.494-4.483Z" transform="translate(-50.294 -106.694)" fill="#f0f0f0"/>
      <path id="Path_1298" data-name="Path 1298" d="M69.79,126.532a5.671,5.671,0,1,1,4.017-1.657A5.671,5.671,0,0,1,69.79,126.532Zm0-10.154a4.483,4.483,0,1,0,4.483,4.483,4.483,4.483,0,0,0-4.483-4.483Z" transform="translate(-51.472 -106.694)" fill="#f0f0f0"/>
      <path id="Path_1299" data-name="Path 1299" d="M358.855,340.068H59.02a6.741,6.741,0,0,1-6.72-6.72V133.74H365.575V333.348a6.741,6.741,0,0,1-6.72,6.72Z" transform="translate(-52.3 -105.396)" fill="#0a6f96"/>
      <rect id="Rectangle_17344" data-name="Rectangle 17344" width="309.465" height="176.903" transform="translate(1.905 34.09)" fill="#fff"/>
      <rect id="Rectangle_17345" data-name="Rectangle 17345" width="126.035" height="23.893" rx="3.81" transform="translate(17.067 49.252)" fill="#0a6f96"/>
      <path id="Path_1300" data-name="Path 1300" d="M333.3,154.35a3.007,3.007,0,0,1,3.007,3.007V173.1A3.007,3.007,0,0,1,333.3,176.1H215.417a3.007,3.007,0,0,1-3.007-3.007v-15.74a3.007,3.007,0,0,1,3.007-3.007H333.3m0-1.07H215.417a4.087,4.087,0,0,0-4.077,4.077V173.1a4.077,4.077,0,0,0,4.077,4.077H333.3a4.077,4.077,0,0,0,4.077-4.077v-15.74A4.087,4.087,0,0,0,333.3,153.28Z" transform="translate(-41.167 -104.028)" fill="#0a6f96"/>
      <path id="Path_1301" data-name="Path 1301" d="M89.2,185.68A19.881,19.881,0,1,1,69.32,205.561,19.881,19.881,0,0,1,89.2,185.68m0-1.07a20.951,20.951,0,1,0,20.951,20.951A20.951,20.951,0,0,0,89.2,184.61Z" transform="translate(-51.183 -101.835)" fill="#0a6f96"/>
      <path id="Path_1302" data-name="Path 1302" d="M103.989,212.192a17.291,17.291,0,0,1-30.4,0A27.349,27.349,0,0,1,103.989,212.192Z" transform="translate(-50.81 -100.227)" fill="#0a6f96" opacity="0.4"/>
      <circle id="Ellipse_17" data-name="Ellipse 17" cx="7.704" cy="7.704" r="7.704" transform="translate(30.313 90.105)" fill="#0a6f96" opacity="0.4"/>
      <path id="Path_1303" data-name="Path 1303" d="M333.105,215.669H129.185a10.775,10.775,0,0,1-10.775-10.775h0a10.764,10.764,0,0,1,10.775-10.764H333.105a10.764,10.764,0,0,1,10.775,10.764h0a10.775,10.775,0,0,1-10.775,10.775Z" transform="translate(-47.672 -101.168)" fill="#0a6f96" opacity="0.4"/>
      <path id="Path_1304" data-name="Path 1304" d="M89.2,239.07A19.881,19.881,0,1,1,69.32,258.951,19.881,19.881,0,0,1,89.2,239.07m0-1.07a20.951,20.951,0,1,0,20.951,20.951A20.951,20.951,0,0,0,89.2,238Z" transform="translate(-51.183 -98.097)" fill="#0a6f96"/>
      <path id="Path_1305" data-name="Path 1305" d="M103.989,265.521a17.291,17.291,0,0,1-30.4,0A27.4,27.4,0,0,1,103.989,265.521Z" transform="translate(-50.81 -96.493)" fill="#0a6f96" opacity="0.4"/>
      <circle id="Ellipse_18" data-name="Ellipse 18" cx="7.704" cy="7.704" r="7.704" transform="translate(30.313 147.179)" fill="#0a6f96" opacity="0.4"/>
      <path id="Path_1306" data-name="Path 1306" d="M129.185,247.46H333.105a10.775,10.775,0,0,1,10.775,10.775h0a10.775,10.775,0,0,1-10.775,10.775H129.185a10.775,10.775,0,0,1-10.775-10.775h0a10.764,10.764,0,0,1,10.764-10.764Z" transform="translate(-47.672 -97.435)" fill="#0a6f96" opacity="0.4"/>
      <path id="Path_1307" data-name="Path 1307" d="M273.282,273.671a100.054,100.054,0,0,0,1.918,19.51,40.21,40.21,0,0,0-19.68,34.471,39.772,39.772,0,0,0,1.07,9.437h88.04a6.741,6.741,0,0,0,6.72-6.72V176.29a99.863,99.863,0,0,0-78.067,97.381Z" transform="translate(-38.075 -102.417)" opacity="0.1"/>
    </g>
    <g id="freepik--Character--inject-40" transform="translate(264.998 226.845)">
      <circle id="Ellipse_19" data-name="Ellipse 19" cx="89.013" cy="89.013" r="89.013" transform="translate(0 125.884) rotate(-45)" fill="#0a6f96"/>
      <circle id="Ellipse_20" data-name="Ellipse 20" cx="81.149" cy="81.149" r="81.149" transform="translate(11.537 125.774) rotate(-45)" fill="#fff"/>
      <path id="Path_1308" data-name="Path 1308" d="M342.012,220.25l-5.179,6.634s-4.548,3.445-6.27,6.42c-2.012,1.99-3.852,4.034-5.671,6.185a85.071,85.071,0,0,0-5.821,7.715,44.771,44.771,0,0,0-4.836,9.191,19.429,19.429,0,0,0-1.295,6.42,11.91,11.91,0,0,0,.813,4.548,10.7,10.7,0,0,0,3.392,4.494l1.134.856,1.7.321a57.342,57.342,0,0,0,10.186,1.006l1.348-.118-1.391-13.568c-1.145,0-3.606.225-4.729.2a2.759,2.759,0,0,1,.139-.642,40.461,40.461,0,0,1,2.782-7.49c1.2-2.6,2.579-5.2,4.013-7.79,1.263-2.29,2.622-4.59,3.938-6.837l6.42-4.045,3.756-6.666Zm-16.7,42.265a1.789,1.789,0,0,1,0-.31.813.813,0,0,1,.1.246C325.438,262.708,325.363,262.718,325.309,262.515Z" transform="translate(-243.093 -148.917)" fill="#7f3e3b"/>
      <path id="Path_1309" data-name="Path 1309" d="M375.456,233.8c.161-.824-5.468-3.649-9.341-1.348-3.349,1.99-3.777,4.708-2.557,7.95a4.941,4.941,0,0,0,.118.674c.075.524.139,1.07.171,1.562.246,3.413-.653,6.591-4.494,8.4,0,.214-.524.439-.7.589a7.65,7.65,0,0,0-2.547,4.868c0,1.391,1.316,2.493,2.846,3.82l2.14,1.445,2.932-.278c9-2.643,13.2-10.861,13.011-11.47C374.728,246.2,374.76,239.52,375.456,233.8Z" transform="translate(-240.071 -148.124)" fill="#7f3e3b"/>
      <path id="Path_1310" data-name="Path 1310" d="M396.9,252.079l-1.626-.278c-2.14-.342-11.684-2.5-16.3-2.91h0c-1.07,2.279-4.58,7.843-13.578,10.486l-2.226.524-2.14-1.07a5.671,5.671,0,0,1-2.333-4.109,6.088,6.088,0,0,1,2.333-4.28.706.706,0,0,0,.182-.246v-.449c-.674.086-9.213,1.38-9.93,1.5A139.1,139.1,0,0,0,327.67,257.8l.086.77,1.552,13.471.578,5.1s4.28-.481,9.9-1.466c-1.53,13.632-1.83,33.384,2.846,58.775l18.265-.342,31.736-.589c.128-2.14-.107-6.57-.332-12.626l-.289-9.352c-.171-8.26-.139-18.19.6-28.8.118-1.68.257-3.37.407-5.082h0c6.484,7.008,12.979,13.707,12.979,13.707l3.071-2.953c3.927-1.894,7.019-5.286,9.716-9.362l3.606-3.477S405.673,253.555,396.9,252.079Z" transform="translate(-242.061 -146.912)" fill="#0a6f96"/>
      <path id="Path_1311" data-name="Path 1311" d="M384.16,270.64a15.954,15.954,0,0,0,2.087,6.313l2.461,4.216c.118-1.68.257-3.37.407-5.083C387.423,274.235,385.733,272.405,384.16,270.64Z" transform="translate(-238.107 -145.389)" opacity="0.3"/>
      <path id="Path_1312" data-name="Path 1312" d="M388.827,275.74h0c-.15,1.712-.289,3.4-.407,5.082h0C388.527,279.143,388.677,277.441,388.827,275.74Z" transform="translate(-237.809 -145.032)" opacity="0.3"/>
      <path id="Path_1313" data-name="Path 1313" d="M363.07,239.82a3.711,3.711,0,0,0,.118.674A3.71,3.71,0,0,0,363.07,239.82Z" transform="translate(-239.583 -147.547)" fill="#7f3e3b"/>
      <path id="Path_1314" data-name="Path 1314" d="M363.351,242.012a10.737,10.737,0,0,0-.171-1.562C363.255,240.974,363.319,241.5,363.351,242.012Z" transform="translate(-239.576 -147.503)" opacity="0.2"/>
      <path id="Path_1315" data-name="Path 1315" d="M370.014,237.45c-.214.15-.417.31-.642.46a12.348,12.348,0,0,1-6.3,2.076,3.714,3.714,0,0,0,.118.674c.075.524.139,1.07.171,1.562v.1a10.786,10.786,0,0,0,6.655-4.868Z" transform="translate(-239.583 -147.713)" fill="#7f3e3b"/>
      <path id="Path_1316" data-name="Path 1316" d="M382.986,250.566a2.386,2.386,0,0,0-1.776-1.819l-2.226-.535a1.327,1.327,0,0,0-1.455.631l-.075.1c-1.07,2.279-4.58,7.843-13.578,10.486l-.7.16h0l-1.53.364-2.14-1.07a5.671,5.671,0,0,1-2.333-4.109,6.088,6.088,0,0,1,2.333-4.28,2.308,2.308,0,0,0,.31-.4c.1-.246.075-.364-.1-.471-2.365-1.7-7.65.92-7.865,1.37-.225.225-.449.46-.674.728a7.415,7.415,0,0,0-1.712,5.671,11.438,11.438,0,0,0,5.425,8.3.246.246,0,0,0,.15,0,.31.31,0,0,0,.171,0,.353.353,0,0,0,.15-.289,6.42,6.42,0,0,1,3.959-5.906l1.872,1.006c-8.046,33.02-2.589,72.6-2.44,73.67h.621c0-.407-5.671-40.328,2.44-73.53l1.958-.471c2.279,2.782,1.2,6.912,1.188,6.955a.321.321,0,0,0,.1.321.332.332,0,0,0,.214.075.214.214,0,0,0,.118,0c.428-.193,10.55-4.622,14.092-8.849a16.906,16.906,0,0,0,3.445-6.955,2.268,2.268,0,0,0,.053-1.156Z" transform="translate(-240.539 -146.962)" fill="#fff"/>
      <path id="Path_1317" data-name="Path 1317" d="M370.014,237.45c-.214.15-.417.31-.642.46a12.348,12.348,0,0,1-6.3,2.076,3.714,3.714,0,0,0,.118.674c.075.524.139,1.07.171,1.562v.1a10.786,10.786,0,0,0,6.655-4.868Z" transform="translate(-239.583 -147.713)" opacity="0.2"/>
      <path id="Path_1318" data-name="Path 1318" d="M357.505,215.912c4.184-5.35,1.53-8.56-.246-8.26-1.68.792-3.274,3.028-4.1,8.036a12.651,12.651,0,0,0-.086,3.574C354.8,219.175,357.505,215.912,357.505,215.912Z" transform="translate(-240.289 -149.8)" fill="#263238"/>
      <path id="Path_1319" data-name="Path 1319" d="M375.154,227.719c11.588-20.384-11.3-22.759-15.964-18.19a19.847,19.847,0,0,0-3.927,5.05l-.974,1.915a29.263,29.263,0,0,0-1.07,2.771,32.775,32.775,0,0,0-1.819,10.518,12.241,12.241,0,0,0,12.519,12.294h0a12.348,12.348,0,0,0,6.3-2.076c.225-.15.428-.31.642-.46A14.616,14.616,0,0,0,374.7,235.5C377.08,231.656,376.459,229.719,375.154,227.719Z" transform="translate(-240.4 -149.805)" fill="#7f3e3b"/>
      <path id="Path_1320" data-name="Path 1320" d="M353.556,215.438a.449.449,0,0,0,.075.621.46.46,0,0,0,.278.1.4.4,0,0,0,.235-.086.267.267,0,0,0,.107-.086,3.7,3.7,0,0,1,2.921-1.466.449.449,0,0,0,.471-.417.439.439,0,0,0-.407-.471,4.516,4.516,0,0,0-2.14.524,4.9,4.9,0,0,0-1.541,1.284Z" transform="translate(-240.256 -149.38)" fill="#263238"/>
      <path id="Path_1321" data-name="Path 1321" d="M364.757,227.3a.225.225,0,0,0-.31,0,6.281,6.281,0,0,1-5.35,1.327.225.225,0,0,0-.257.171.235.235,0,0,0,.171.268,7.328,7.328,0,0,0,1.552.139,6.42,6.42,0,0,0,4.162-1.584.225.225,0,0,0,.032-.321Z" transform="translate(-239.88 -148.427)" fill="#263238"/>
      <path id="Path_1322" data-name="Path 1322" d="M359.328,220.16a28.154,28.154,0,0,1-5.018,5.575c1.07,1.477,3.381,1.37,3.381,1.37Z" transform="translate(-240.197 -148.923)" fill="#630f0f"/>
      <path id="Path_1323" data-name="Path 1323" d="M355.5,220.574c.482.1,1.07-.417,1.188-1.156s-.075-1.4-.556-1.5-1.017.417-1.188,1.156S355.008,220.478,355.5,220.574Z" transform="translate(-240.156 -149.08)" fill="#263238"/>
      <path id="Path_1324" data-name="Path 1324" d="M363.321,222.174c.482.1,1.006-.417,1.188-1.156s-.086-1.4-.567-1.5-1.017.417-1.188,1.156S362.828,222.035,363.321,222.174Z" transform="translate(-239.609 -148.968)" fill="#263238"/>
      <path id="Path_1325" data-name="Path 1325" d="M382.154,211.87c4.526-3.873-5.789-11.77-5.789-11.77s1.156,2.825-1.241,3.606-19.26-5.51-19.014,1.626a5.478,5.478,0,0,0,.931,2.814,8.131,8.131,0,0,0,1.819,1.872c3.916,2.975,11.042,3.884,14.894,3.884a19.837,19.837,0,0,0-1.273,4.644,12.359,12.359,0,0,0,2.343,9.63c2.14,3.724,5,3.617,7.436.781C386.177,225.256,389.954,217.755,382.154,211.87Z" transform="translate(-240.071 -150.327)" fill="#263238"/>
      <path id="Path_1326" data-name="Path 1326" d="M379.159,225.087c-1.776-.728-3.777.128-5.35,1.423a10.345,10.345,0,0,0-2.215,2.429c-1.509,2.365-.974,5.115,1.733,5.35h1.113a9.32,9.32,0,0,0,5.639-2.675,4.333,4.333,0,0,0,1.166-4.28A3.477,3.477,0,0,0,379.159,225.087Z" transform="translate(-239.045 -148.597)" fill="#7f3e3b"/>
      <path id="Path_1327" data-name="Path 1327" d="M341.748,328.872s-.289,2.5-.738,6.709a81.224,81.224,0,0,0,50.6.471c.107-5.083.182-8.121.182-8.121l-31.779.6h-.621Z" transform="translate(-241.128 -141.379)" fill="#263238"/>
      <path id="Path_1328" data-name="Path 1328" d="M421.96,289.343a10.594,10.594,0,0,0-.621-2.664,9.9,9.9,0,0,0-.546-1.241l-.31-.578-.171-.3a89.606,89.606,0,0,0-4.922-7.49l-9.716,9.362c1.284,1.6,2.536,3.21,3.692,4.858a7.67,7.67,0,0,1-.824,1.552,35.307,35.307,0,0,1-5.35,5.9,157.708,157.708,0,0,1-13.15,10.625l-1.487.193-5.971.813-5.874,3.97,3.863,7.854,4.858-2.482a18.648,18.648,0,0,0,3.413-.8,7.3,7.3,0,0,0,4.205-2.975,89.09,89.09,0,0,0,8.335-3.809,82.758,82.758,0,0,0,8.453-5.018q2.065-1.412,4.087-3.092a31.353,31.353,0,0,0,3.959-3.884,17.849,17.849,0,0,0,3.488-5.96A11.472,11.472,0,0,0,421.96,289.343Zm-12.508,1.691v-.161c0-.257.1-.353.1-.2a1.148,1.148,0,0,1-.075.364Z" transform="translate(-238.629 -144.939)" fill="#7f3e3b"/>
      <circle id="Ellipse_21" data-name="Ellipse 21" cx="29.372" cy="29.372" r="29.372" transform="translate(14.803 195.619) rotate(-80.78)" fill="#263238"/>
      <path id="Path_1329" data-name="Path 1329" d="M310.352,312.176h-13.4v-13.4a2.75,2.75,0,0,0-5.5,0v13.4h-13.4a2.75,2.75,0,0,0,0,5.5h13.4v13.4a2.75,2.75,0,1,0,5.5,0v-13.4h13.4a2.75,2.75,0,0,0,0-5.5Z" transform="translate(-245.727 -143.612)" fill="#fff"/>
      <path id="Path_1330" data-name="Path 1330" d="M364.8,216.815a3.381,3.381,0,0,1,2.44,1.99.449.449,0,0,0,.407.257.374.374,0,0,0,.182,0,.439.439,0,0,0,.214-.589,4.28,4.28,0,0,0-3.124-2.493.443.443,0,0,0-.118.877Z" transform="translate(-239.489 -149.216)" fill="#263238"/>
    </g>
  </g>
</svg>
